0
SECTION
2
HEADER
9
$INSUNITS
70
4
9
$ACADVER
1
AC1014
9
$HANDSEED
5
FFFF
0
ENDSEC
0
SECTION
2
TABLES
0
TABLE
2
VPORT
5
8
100
AcDbSymbolTable
0
ENDTAB
0
TABLE
2
LTYPE
5
5
100
AcDbSymbolTable
0
LTYPE
5
14
100
AcDbSymbolTableRecord
100
AcDbLinetypeTableRecord
2
BYBLOCK
70
0
0
LTYPE
5
15
100
AcDbSymbolTableRecord
100
AcDbLinetypeTableRecord
2
BYLAYER
70
0
0
ENDTAB
0
TABLE
2
LAYER
5
2
100
AcDbSymbolTable
70
2
0
LAYER
5
50
100
AcDbSymbolTableRecord
100
AcDbLayerTableRecord
2
0
70
0
6
CONTINUOUS
0
ENDTAB
0
TABLE
2
STYLE
5
3
100
AcDbSymbolTable
70
1
0
STYLE
5
11
100
AcDbSymbolTableRecord
100
AcDbTextStyleTableRecord
2
STANDARD
70
0
0
ENDTAB
0
TABLE
2
VIEW
5
6
100
AcDbSymbolTable
70
0
0
ENDTAB
0
TABLE
2
UCS
5
7
100
AcDbSymbolTable
70
0
0
ENDTAB
0
TABLE
2
APPID
5
9
100
AcDbSymbolTable
70
2
0
APPID
5
12
100
AcDbSymbolTableRecord
100
AcDbRegAppTableRecord
2
ACAD
70
0
0
ENDTAB
0
TABLE
2
DIMSTYLE
5
A
100
AcDbSymbolTable
70
1
0
ENDTAB
0
TABLE
2
BLOCK_RECORD
5
1
100
AcDbSymbolTable
70
1
0
BLOCK_RECORD
5
1F
100
AcDbSymbolTableRecord
100
AcDbBlockTableRecord
2
*MODEL_SPACE
0
BLOCK_RECORD
5
1B
100
AcDbSymbolTableRecord
100
AcDbBlockTableRecord
2
*PAPER_SPACE
0
ENDTAB
0
ENDSEC
0
SECTION
2
BLOCKS
0
BLOCK
5
20
100
AcDbEntity
100
AcDbBlockBegin
2
*MODEL_SPACE
0
ENDBLK
5
21
100
AcDbEntity
100
AcDbBlockEnd
0
BLOCK
5
1C
100
AcDbEntity
100
AcDbBlockBegin
2
*PAPER_SPACE
0
ENDBLK
5
1D
100
AcDbEntity
100
AcDbBlockEnd
0
ENDSEC
0
SECTION
2
ENTITIES
0
CIRCLE
5
100
100
AcDbEntity
8
0
100
AcDbCircle
10
-6.6151942221894444
20
-15.348973500199499
30
0
40
4.5000000000000018
0
CIRCLE
5
101
100
AcDbEntity
8
0
100
AcDbCircle
10
-38.615194222189508
20
-15.348973500199543
30
0
40
4.5000000000000018
0
CIRCLE
5
102
100
AcDbEntity
8
0
100
AcDbCircle
10
-62.615194222189572
20
-23.348973500199573
30
0
40
4.5000000000000107
0
CIRCLE
5
103
100
AcDbEntity
8
0
100
AcDbCircle
10
-54.615194222189523
20
-15.348973500199566
30
0
40
4.5000000000000107
0
CIRCLE
5
104
100
AcDbEntity
8
0
100
AcDbCircle
10
-22.615194222189459
20
-15.34897350019952
30
0
40
4.5000000000000018
0
CIRCLE
5
105
100
AcDbEntity
8
0
100
AcDbCircle
10
1.3848057778106337
20
-7.3489735001994916
30
0
40
4.5000000000000018
0
CIRCLE
5
106
100
AcDbEntity
8
0
100
AcDbCircle
10
-14.615194222189487
20
-23.348973500199506
30
0
40
4.5000000000000018
0
CIRCLE
5
107
100
AcDbEntity
8
0
100
AcDbCircle
10
-46.615194222189551
20
-23.348973500199548
30
0
40
4.5000000000000018
0
CIRCLE
5
108
100
AcDbEntity
8
0
100
AcDbCircle
10
-62.615194222189501
20
-7.3489735001995804
30
0
40
4.5000000000000107
0
CIRCLE
5
109
100
AcDbEntity
8
0
100
AcDbCircle
10
-46.615194222189459
20
-7.3489735001995582
30
0
40
4.5000000000000018
0
CIRCLE
5
110
100
AcDbEntity
8
0
100
AcDbCircle
10
-14.615194222189398
20
-7.3489735001995093
30
0
40
4.5000000000000018
0
CIRCLE
5
111
100
AcDbEntity
8
0
100
AcDbCircle
10
1.3848057778105449
20
-23.348973500199477
30
0
40
4.5000000000000018
0
CIRCLE
5
112
100
AcDbEntity
8
0
100
AcDbCircle
10
-28.268887824995819
20
-25.502063141884626
30
0
40
1.5000000000000067
0
CIRCLE
5
113
100
AcDbEntity
8
0
100
AcDbCircle
10
11.731112175004306
20
-13.302063141884521
30
0
40
1.5000000000000067
0
CIRCLE
5
114
100
AcDbEntity
8
0
100
AcDbCircle
10
-29.268887824995762
20
-13.30206314188462
30
0
40
1.5000000000000067
0
CIRCLE
5
115
100
AcDbEntity
8
0
100
AcDbCircle
10
-69.268887824995858
20
-25.502063141884726
30
0
40
1.4999999999999978
0
LWPOLYLINE
5
116
100
AcDbEntity
8
0
100
AcDbPolyline
90
20
70
1
43
0.0
10
-52.018887824995772
20
3.9479368581153294
42
-0.41421356237309426
10
-51.018887824995772
20
2.9479368581153271
10
-51.01888782499578
20
-0.052063141884662642
10
-6.518887824995673
20
-0.052063141884552966
10
-6.5188878249956765
20
2.9479368581154333
42
-0.4142135623730962
10
-5.5188878249956748
20
3.9479368581154395
10
14.731112175004338
20
3.9479368581154972
42
-0.4142135623730937
10
15.731112175004347
20
2.9479368581154786
10
15.731112175004311
20
-32.052063141884524
42
-0.4142135623731022
10
14.731112175004299
20
-33.052063141884524
10
-5.5188878249957307
20
-33.052063141884595
42
-0.41421356237309209
10
-6.518887824995744
20
-32.052063141884581
10
-6.5188878249957405
20
-29.052063141884581
10
-51.018887824995844
20
-29.052063141884688
10
-51.018887824995822
20
-32.052063141884673
42
-0.41421356237308854
10
-52.018887824995815
20
-33.052063141884688
10
-72.268887824995858
20
-33.05206314188473
42
-0.4142135623730937
10
-73.268887824995858
20
-32.052063141884737
10
-73.268887824995815
20
2.9479368581152778
42
-0.41421356237308904
10
-72.268887824995829
20
3.9479368581152885
0
ENDSEC
0
SECTION
2
OBJECTS
0
DICTIONARY
5
C
100
AcDbDictionary
3
ACAD_GROUP
350
D
3
ACAD_MLINESTYLE
350
17
0
DICTIONARY
5
D
100
AcDbDictionary
0
DICTIONARY
5
1A
330
C
100
AcDbDictionary
0
DICTIONARY
5
17
100
AcDbDictionary
0
ENDSEC
0
EOF
