0
SECTION
2
HEADER
9
$INSUNITS
70
4
9
$ACADVER
1
AC1014
9
$HANDSEED
5
FFFF
0
ENDSEC
0
SECTION
2
TABLES
0
TABLE
2
VPORT
5
8
100
AcDbSymbolTable
0
ENDTAB
0
TABLE
2
LTYPE
5
5
100
AcDbSymbolTable
0
LTYPE
5
14
100
AcDbSymbolTableRecord
100
AcDbLinetypeTableRecord
2
BYBLOCK
70
0
0
LTYPE
5
15
100
AcDbSymbolTableRecord
100
AcDbLinetypeTableRecord
2
BYLAYER
70
0
0
ENDTAB
0
TABLE
2
LAYER
5
2
100
AcDbSymbolTable
70
2
0
LAYER
5
50
100
AcDbSymbolTableRecord
100
AcDbLayerTableRecord
2
0
70
0
6
CONTINUOUS
0
ENDTAB
0
TABLE
2
STYLE
5
3
100
AcDbSymbolTable
70
1
0
STYLE
5
11
100
AcDbSymbolTableRecord
100
AcDbTextStyleTableRecord
2
STANDARD
70
0
0
ENDTAB
0
TABLE
2
VIEW
5
6
100
AcDbSymbolTable
70
0
0
ENDTAB
0
TABLE
2
UCS
5
7
100
AcDbSymbolTable
70
0
0
ENDTAB
0
TABLE
2
APPID
5
9
100
AcDbSymbolTable
70
2
0
APPID
5
12
100
AcDbSymbolTableRecord
100
AcDbRegAppTableRecord
2
ACAD
70
0
0
ENDTAB
0
TABLE
2
DIMSTYLE
5
A
100
AcDbSymbolTable
70
1
0
ENDTAB
0
TABLE
2
BLOCK_RECORD
5
1
100
AcDbSymbolTable
70
1
0
BLOCK_RECORD
5
1F
100
AcDbSymbolTableRecord
100
AcDbBlockTableRecord
2
*MODEL_SPACE
0
BLOCK_RECORD
5
1B
100
AcDbSymbolTableRecord
100
AcDbBlockTableRecord
2
*PAPER_SPACE
0
ENDTAB
0
ENDSEC
0
SECTION
2
BLOCKS
0
BLOCK
5
20
100
AcDbEntity
100
AcDbBlockBegin
2
*MODEL_SPACE
0
ENDBLK
5
21
100
AcDbEntity
100
AcDbBlockEnd
0
BLOCK
5
1C
100
AcDbEntity
100
AcDbBlockBegin
2
*PAPER_SPACE
0
ENDBLK
5
1D
100
AcDbEntity
100
AcDbBlockEnd
0
ENDSEC
0
SECTION
2
ENTITIES
0
LWPOLYLINE
5
100
100
AcDbEntity
8
0
100
AcDbPolyline
90
6
70
1
43
0.0
10
-38.036372007771568
20
7.1164107199508582
42
-0.45971231446262539
10
-19.501403642219984
20
7.1164107199508431
10
-15.268887824995909
20
7.1164107199508919
10
-15.268887824995874
20
-27.883589280049144
10
-42.268887824995815
20
-27.883589280049161
10
-42.268887824995822
20
7.1164107199508742
0
CIRCLE
5
101
100
AcDbEntity
8
0
100
AcDbCircle
10
-28.76888782499579
20
23.531460803655513
30
0
40
7.6435455606179907
0
SPLINE
5
102
100
AcDbEntity
8
0
100
AcDbSpline
70
1064
71
5
72
26
73
20
74
0
42
0.000000001
43
0.0000000001
44
0.0000000001
40
0
40
0
40
0
40
0
40
0
40
0
40
0.066666666666666666
40
0.13333333333333333
40
0.20000000000000001
40
0.26666666666666666
40
0.33333333333333331
40
0.39999999999999997
40
0.46666666666666662
40
0.53333333333333333
40
0.59999999999999998
40
0.66666666666666663
40
0.73333333333333328
40
0.79999999999999993
40
0.86666666666666659
40
0.93333333333333324
40
1
40
1
40
1
40
1
40
1
40
1
10
-73.26888782499573
20
9.7853864120032341
30
8.6736173798840355e-18
10
-73.268887824995744
20
8.8939960267211404
30
8.6736173798840355e-18
10
-73.080150715551923
20
7.3658617959398853
30
0
10
-72.230045625635753
20
5.8372067109767656
30
8.6736173798840355e-18
10
-70.005597936485046
20
5.1144785424256511
30
8.6736173798840355e-18
10
-65.690829959371342
20
5.2564909616376099
30
0
10
-60.4702050489757
20
5.191682575150196
30
0
10
-55.122368897575939
20
3.8992748710077763
30
0
10
-51.22486959812656
20
1.3158999236629398
30
0
10
-49.596798482453337
20
-1.9280764959203012
30
0
10
-49.345060989811593
20
-5.4212918601296245
30
8.6736173798840355e-18
10
-49.502640431634426
20
-8.9411593387801425
30
-8.6736173798840355e-18
10
-49.263772356985228
20
-12.550933307774361
30
0
10
-49.862784953945265
20
-17.199105756499726
30
0
10
-51.268246744087918
20
-22.70945876435734
30
0
10
-52.413151005226638
20
-28.101267862458155
30
0
10
-51.996063184626173
20
-31.314184857967682
30
0
10
-50.352499036824703
20
-32.598217340936358
30
0
10
-48.584314755389556
20
-32.883589280048469
30
0
10
-47.532059783630054
20
-32.883589280048525
30
0
0
LINE
5
103
100
AcDbEntity
8
0
100
AcDbLine
10
-47.532059783630046
20
-32.883589280048525
30
0
11
-39.768887824995815
21
-32.883589280049073
31
1.3090564373513425e-31
0
LINE
5
104
100
AcDbEntity
8
0
100
AcDbLine
10
-39.768887824995815
20
-32.883589280049073
30
1.3090564373513425e-31
11
-39.768887824995822
21
-111.88358928004877
31
0
0
ARC
5
105
100
AcDbEntity
8
0
100
AcDbCircle
10
-38.768887824995815
20
-111.8835892800488
30
-4.7895943604852146e-46
40
1.0000000000000053
100
AcDbArc
50
180
51
269.9999999999996
0
LINE
5
106
100
AcDbEntity
8
0
100
AcDbLine
10
-38.768887824995822
20
-112.8835892800488
30
-7.6888810839555159e-47
11
-35.268887824995602
21
-112.88358928004881
31
-3.0330823732963803e-31
0
LINE
5
107
100
AcDbEntity
8
0
100
AcDbLine
10
-35.268887824995602
20
-112.88358928004881
30
-3.0330823732963803e-31
11
-35.268887824995616
21
-116.88358928004882
31
0
0
LINE
5
108
100
AcDbEntity
8
0
100
AcDbLine
10
-35.268887824995616
20
-116.88358928004882
30
0
11
-38.768887824995808
21
-116.8835892800488
31
-8.6736173798837319e-18
0
ARC
5
109
100
AcDbEntity
8
0
100
AcDbCircle
10
-38.768887824995829
20
-117.88358928004877
30
-1.2795059220153359e-45
40
0.99999999999997868
100
AcDbArc
50
89.999999999998778
51
180
0
LINE
5
110
100
AcDbEntity
8
0
100
AcDbLine
10
-39.768887824995808
20
-117.88358928004881
30
-4.7573604718769581e-32
11
-39.768887824995815
21
-127.88358928004875
31
0
0
ARC
5
111
100
AcDbEntity
8
0
100
AcDbCircle
10
-38.768887824995829
20
-127.88358928004875
30
-9.0874000143134652e-48
40
0.99999999999998757
100
AcDbArc
50
180
51
270.0000000000004
0
LINE
5
112
100
AcDbEntity
8
0
100
AcDbLine
10
-38.768887824995822
20
-128.88358928004874
30
4.175339384067165e-49
11
-35.268887824995637
21
-128.88358928004874
31
5.5391538254828664e-34
0
LINE
5
113
100
AcDbEntity
8
0
100
AcDbLine
10
-35.268887824995637
20
-128.88358928004874
30
5.5391538254828664e-34
11
-35.268887824995645
21
-132.88358928004874
31
0
0
LINE
5
114
100
AcDbEntity
8
0
100
AcDbLine
10
-35.268887824995645
20
-132.88358928004874
30
0
11
-38.768887824995822
21
-132.88358928004874
31
-8.6736173798840355e-18
0
ARC
5
115
100
AcDbEntity
8
0
100
AcDbCircle
10
-38.768887824995815
20
-133.88358928004874
30
2.8053338397127686e-46
40
0.99999999999999645
100
AcDbArc
50
90.000000000000398
51
180
0
LINE
5
116
100
AcDbEntity
8
0
100
AcDbLine
10
-39.768887824995808
20
-133.88358928004874
30
-4.8122182571799318e-32
11
-39.768887824995815
21
-151.88358928004888
31
0
0
ARC
5
117
100
AcDbEntity
8
0
100
AcDbCircle
10
-38.768887824995815
20
-151.88358928004891
30
3.4745941231198543e-49
40
1.0000000000000009
100
AcDbArc
50
180
51
270
0
LINE
5
118
100
AcDbEntity
8
0
100
AcDbLine
10
-38.768887824995815
20
-152.88358928004891
30
-3.3969798189704555e-49
11
-18.768887824995858
21
-152.88358928004891
31
3.1652307574186076e-33
0
ARC
5
119
100
AcDbEntity
8
0
100
AcDbCircle
10
-18.768887824995865
20
-151.88358928004891
30
1.0691058840368783e-48
40
0.99999999999999645
100
AcDbArc
50
-89.999999999999588
51
0
0
LINE
5
120
100
AcDbEntity
8
0
100
AcDbLine
10
-17.768887824995868
20
-151.88358928004891
30
-6.330461514837196e-34
11
-17.768887824995865
21
-133.8835892800488
31
-8.6736173798840355e-18
0
ARC
5
121
100
AcDbEntity
8
0
100
AcDbCircle
10
-18.768887824995861
20
-133.8835892800488
30
-5.8159360091606177e-47
40
0.99999999999999645
100
AcDbArc
50
0
51
89.999999999999389
0
LINE
5
122
100
AcDbEntity
8
0
100
AcDbLine
10
-18.768887824995851
20
-132.8835892800488
30
6.4061226543909588e-47
11
-22.268887824996284
21
-132.88358928004877
31
-1.8972982843349435e-31
0
LINE
5
123
100
AcDbEntity
8
0
100
AcDbLine
10
-22.268887824996284
20
-132.88358928004877
30
-1.8972982843349435e-31
11
-22.268887824996266
21
-128.88358928004874
31
0
0
LINE
5
124
100
AcDbEntity
8
0
100
AcDbLine
10
-22.268887824996266
20
-128.88358928004874
30
0
11
-18.768887824995872
21
-128.8835892800488
31
8.6736173798842265e-18
0
ARC
5
125
100
AcDbEntity
8
0
100
AcDbCircle
10
-18.768887824995858
20
-127.8835892800488
30
1.2829270608442539e-48
40
0.99999999999999645
100
AcDbArc
50
269.9999999999992
51
360
0
LINE
5
126
100
AcDbEntity
8
0
100
AcDbLine
10
-17.768887824995861
20
-127.8835892800488
30
1.5826153787093106e-34
11
-17.768887824995865
21
-117.88358928004881
31
0
0
ARC
5
127
100
AcDbEntity
8
0
100
AcDbCircle
10
-18.768887824995854
20
-117.88358928004882
30
-3.9022364767346056e-48
40
0.99999999999998979
100
AcDbArc
50
0
51
90.000000000000398
0
LINE
5
128
100
AcDbEntity
8
0
100
AcDbLine
10
-18.768887824995861
20
-116.88358928004882
30
-2.0801175663580622e-49
11
-22.268887824996231
21
-116.88358928004882
31
-5.5391538254831615e-34
0
LINE
5
129
100
AcDbEntity
8
0
100
AcDbLine
10
-22.268887824996231
20
-116.88358928004882
30
-5.5391538254831615e-34
11
-22.26888782499622
21
-112.88358928004882
31
0
0
LINE
5
130
100
AcDbEntity
8
0
100
AcDbLine
10
-22.26888782499622
20
-112.88358928004882
30
0
11
-18.768887824995861
21
-112.88358928004882
31
8.6736173798840355e-18
0
ARC
5
131
100
AcDbEntity
8
0
100
AcDbCircle
10
-18.768887824995854
20
-111.88358928004885
30
-4.4902447129548887e-48
40
0.99999999999997868
100
AcDbArc
50
-90.000000000000398
51
0
0
LINE
5
132
100
AcDbEntity
8
0
100
AcDbLine
10
-17.768887824995858
20
-111.88358928004885
30
-6.3304615148372516e-34
11
-17.768887824995868
21
-32.883589280049094
31
0
0
LINE
5
133
100
AcDbEntity
8
0
100
AcDbLine
10
-17.768887824995868
20
-32.883589280049094
30
0
11
-10.005715866361538
21
-32.883589280048525
31
3.6458964509385897e-31
0
SPLINE
5
134
100
AcDbEntity
8
0
100
AcDbSpline
70
1064
71
5
72
26
73
20
74
0
42
0.000000001
43
0.0000000001
44
0.0000000001
40
-1
40
-1
40
-1
40
-1
40
-1
40
-1
40
-0.93333333333333324
40
-0.86666666666666659
40
-0.79999999999999993
40
-0.73333333333333328
40
-0.66666666666666663
40
-0.59999999999999998
40
-0.53333333333333333
40
-0.46666666666666662
40
-0.39999999999999997
40
-0.33333333333333331
40
-0.26666666666666666
40
-0.20000000000000001
40
-0.13333333333333333
40
-0.066666666666666666
40
-0
40
-0
40
-0
40
-0
40
-0
40
-0
10
-10.005715866361538
20
-32.883589280048525
30
8.6736173798840355e-18
10
-8.9534608946020278
20
-32.883589280048469
30
8.6736173798840355e-18
10
-7.1852766131668755
20
-32.598217340936358
30
0
10
-5.541712465365416
20
-31.314184857967682
30
0
10
-5.1246246447649479
20
-28.101267862458155
30
0
10
-6.2695289059036785
20
-22.70945876435734
30
0
10
-7.6749906960463221
20
-17.199105756499726
30
0
10
-8.2740032930063645
20
-12.550933307774361
30
-8.6736173798840355e-18
10
-8.0351352183571745
20
-8.9411593387801425
30
0
10
-8.1927146601799983
20
-5.4212918601296245
30
8.6736173798840355e-18
10
-7.940977167538259
20
-1.9280764959203012
30
-8.6736173798840355e-18
10
-6.312906051865026
20
1.3158999236629398
30
0
10
-2.4154067524156542
20
3.8992748710077763
30
0
10
2.9324293989841088
20
5.191682575150196
30
0
10
8.1530543093797636
20
5.2564909616376099
30
0
10
12.467822286493453
20
5.1144785424256511
30
0
10
14.692269975644168
20
5.8372067109767656
30
0
10
15.542375065560323
20
7.3658617959398853
30
8.6736173798840355e-18
10
15.731112175004158
20
8.8939960267211404
30
0
10
15.73111217500414
20
9.7853864120032341
30
0
0
LINE
5
135
100
AcDbEntity
8
0
100
AcDbLine
10
15.73111217500414
20
9.7853864120032323
30
5.5988355862494384e-33
11
15.731112175004052
21
15.116410719950784
31
2.6963019221421302e-31
0
ARC
5
136
100
AcDbEntity
8
0
100
AcDbCircle
10
14.731112175004055
20
15.116410719950792
30
2.2718500035783663e-48
40
0.99999999999999645
100
AcDbArc
50
0
51
90
0
LINE
5
137
100
AcDbEntity
8
0
100
AcDbLine
10
14.731112175004055
20
16.116410719950792
30
4.5861528308439265e-49
11
-6.5188878249963844
21
16.116410719950807
31
-3.9476675837848166e-30
0
LINE
5
138
100
AcDbEntity
8
0
100
AcDbLine
10
-6.5188878249963844
20
16.116410719950807
30
-3.9476675837848166e-30
11
-6.51888782499638
21
20.116410719950789
31
0
0
LINE
5
139
100
AcDbEntity
8
0
100
AcDbLine
10
-6.51888782499638
20
20.116410719950789
30
0
11
14.73111217500422
21
20.11641071995097
31
-8.6736173798859491e-18
0
ARC
5
140
100
AcDbEntity
8
0
100
AcDbCircle
10
14.731112175004217
20
21.116410719950984
30
-1.7105694144590052e-48
40
1.0000000000000142
100
AcDbArc
50
270.00000000000023
51
360
0
LINE
5
141
100
AcDbEntity
8
0
100
AcDbLine
10
15.731112175004213
20
21.116410719950984
30
-6.3304615148372234e-34
11
15.731112175004212
21
34.116410719950935
31
0
0
ARC
5
142
100
AcDbEntity
8
0
100
AcDbCircle
10
14.731112175004199
20
34.11641071995092
30
-1.0691058840368783e-48
40
1.000000000000012
100
AcDbArc
50
0
51
90.000000000000099
0
LINE
5
143
100
AcDbEntity
8
0
100
AcDbLine
10
14.731112175004197
20
35.11641071995092
30
-1.8617081604834797e-49
11
-72.268887824995872
21
35.116410719950935
31
-1.3768753794770981e-32
0
ARC
5
144
100
AcDbEntity
8
0
100
AcDbCircle
10
-72.268887824995858
20
34.116410719950927
30
-8.2855706012858065e-49
40
1.0000000000000098
100
AcDbArc
50
90.00000000000081
51
180
0
LINE
5
145
100
AcDbEntity
8
0
100
AcDbLine
10
-73.268887824995858
20
34.11641071995092
30
-1.5826153787093024e-34
11
-73.268887824995858
21
21.116410719950824
31
8.6736173798840355e-18
0
ARC
5
146
100
AcDbEntity
8
0
100
AcDbCircle
10
-72.268887824995872
20
21.116410719950839
30
-1.2658213666996639e-46
40
0.99999999999998757
100
AcDbArc
50
180
51
270.0000000000008
0
LINE
5
147
100
AcDbEntity
8
0
100
AcDbLine
10
-72.268887824995858
20
20.116410719950849
30
1.5407439555099406e-33
11
-51.018887824996298
21
20.116410719950792
31
-1.0262547794532472e-29
0
LINE
5
148
100
AcDbEntity
8
0
100
AcDbLine
10
-51.018887824996298
20
20.116410719950792
30
-1.0262547794532472e-29
11
-51.018887824996298
21
16.116410719950814
31
0
0
LINE
5
149
100
AcDbEntity
8
0
100
AcDbLine
10
-51.018887824996298
20
16.116410719950814
30
0
11
-72.268887824995744
21
16.116410719950807
31
-7.8919721098898749e-30
0
ARC
5
150
100
AcDbEntity
8
0
100
AcDbCircle
10
-72.268887824995744
20
15.116410719950794
30
-2.8865858868995713e-48
40
1.000000000000012
100
AcDbArc
50
90
51
180
0
LINE
5
151
100
AcDbEntity
8
0
100
AcDbLine
10
-73.268887824995744
20
15.116410719950792
30
-9.49569227225583e-34
11
-73.26888782499573
21
9.7853864120032341
31
8.6736173798840355e-18
0
ENDSEC
0
SECTION
2
OBJECTS
0
DICTIONARY
5
C
100
AcDbDictionary
3
ACAD_GROUP
350
D
3
ACAD_MLINESTYLE
350
17
0
DICTIONARY
5
D
100
AcDbDictionary
0
DICTIONARY
5
1A
330
C
100
AcDbDictionary
0
DICTIONARY
5
17
100
AcDbDictionary
0
ENDSEC
0
EOF
