0
SECTION
2
HEADER
9
$INSUNITS
70
4
9
$ACADVER
1
AC1014
9
$HANDSEED
5
FFFF
0
ENDSEC
0
SECTION
2
TABLES
0
TABLE
2
VPORT
5
8
100
AcDbSymbolTable
0
ENDTAB
0
TABLE
2
LTYPE
5
5
100
AcDbSymbolTable
0
LTYPE
5
14
100
AcDbSymbolTableRecord
100
AcDbLinetypeTableRecord
2
BYBLOCK
70
0
0
LTYPE
5
15
100
AcDbSymbolTableRecord
100
AcDbLinetypeTableRecord
2
BYLAYER
70
0
0
ENDTAB
0
TABLE
2
LAYER
5
2
100
AcDbSymbolTable
70
2
0
LAYER
5
50
100
AcDbSymbolTableRecord
100
AcDbLayerTableRecord
2
0
70
0
6
CONTINUOUS
0
ENDTAB
0
TABLE
2
STYLE
5
3
100
AcDbSymbolTable
70
1
0
STYLE
5
11
100
AcDbSymbolTableRecord
100
AcDbTextStyleTableRecord
2
STANDARD
70
0
0
ENDTAB
0
TABLE
2
VIEW
5
6
100
AcDbSymbolTable
70
0
0
ENDTAB
0
TABLE
2
UCS
5
7
100
AcDbSymbolTable
70
0
0
ENDTAB
0
TABLE
2
APPID
5
9
100
AcDbSymbolTable
70
2
0
APPID
5
12
100
AcDbSymbolTableRecord
100
AcDbRegAppTableRecord
2
ACAD
70
0
0
ENDTAB
0
TABLE
2
DIMSTYLE
5
A
100
AcDbSymbolTable
70
1
0
ENDTAB
0
TABLE
2
BLOCK_RECORD
5
1
100
AcDbSymbolTable
70
1
0
BLOCK_RECORD
5
1F
100
AcDbSymbolTableRecord
100
AcDbBlockTableRecord
2
*MODEL_SPACE
0
BLOCK_RECORD
5
1B
100
AcDbSymbolTableRecord
100
AcDbBlockTableRecord
2
*PAPER_SPACE
0
ENDTAB
0
ENDSEC
0
SECTION
2
BLOCKS
0
BLOCK
5
20
100
AcDbEntity
100
AcDbBlockBegin
2
*MODEL_SPACE
0
ENDBLK
5
21
100
AcDbEntity
100
AcDbBlockEnd
0
BLOCK
5
1C
100
AcDbEntity
100
AcDbBlockBegin
2
*PAPER_SPACE
0
ENDBLK
5
1D
100
AcDbEntity
100
AcDbBlockEnd
0
ENDSEC
0
SECTION
2
ENTITIES
0
CIRCLE
5
100
100
AcDbEntity
8
0
100
AcDbCircle
10
108.54719907629777
20
-2.2679627475714796
30
0
40
8.4999999999999982
0
CIRCLE
5
101
100
AcDbEntity
8
0
100
AcDbCircle
10
78.547199076297773
20
-2.2679627475714779
30
0
40
8.4999999999999982
0
CIRCLE
5
102
100
AcDbEntity
8
0
100
AcDbCircle
10
48.547199076297787
20
27.732037252428515
30
-5.5511151231257827e-16
40
8.5
0
CIRCLE
5
103
100
AcDbEntity
8
0
100
AcDbCircle
10
63.547199076297758
20
-17.267962747571474
30
-5.5511151231257827e-16
40
8.5000000000000036
0
CIRCLE
5
104
100
AcDbEntity
8
0
100
AcDbCircle
10
123.54719907629777
20
12.732037252428521
30
1.1102230246251565e-15
40
8.4999999999999982
0
CIRCLE
5
105
100
AcDbEntity
8
0
100
AcDbCircle
10
93.547199076297744
20
-17.267962747571474
30
0
40
8.5000000000000071
0
CIRCLE
5
106
100
AcDbEntity
8
0
100
AcDbCircle
10
93.547199076297787
20
12.732037252428521
30
1.6653345369377348e-15
40
8.5000000000000071
0
CIRCLE
5
107
100
AcDbEntity
8
0
100
AcDbCircle
10
63.54719907629778
20
12.732037252428521
30
1.1102230246251565e-15
40
8.5000000000000036
0
CIRCLE
5
108
100
AcDbEntity
8
0
100
AcDbCircle
10
48.547199076297773
20
-2.2679627475714761
30
0
40
8.5
0
CIRCLE
5
109
100
AcDbEntity
8
0
100
AcDbCircle
10
108.54719907629779
20
27.732037252428515
30
0
40
8.4999999999999982
0
CIRCLE
5
110
100
AcDbEntity
8
0
100
AcDbCircle
10
138.54719907629777
20
-2.2679627475714801
30
0
40
8.4999999999999982
0
LWPOLYLINE
5
111
100
AcDbEntity
8
0
100
AcDbPolyline
90
68
70
1
43
0.0
10
52.883589280048994
20
42.673804259354839
42
-0.41421356237309509
10
53.883589280048987
20
43.673804259354831
10
71.883589280048994
20
43.673804259354839
42
-0.41421356237309509
10
72.883589280048994
20
42.673804259354839
10
72.883589280048938
20
39.673804259354839
10
92.883589280048966
20
39.673804259354839
10
92.883589280048994
20
42.673804259354839
42
-0.4142135623730977
10
93.88358928004898
20
43.673804259354831
10
111.88358928004899
20
43.673804259354839
42
-0.4142135623730977
10
112.88358928004898
20
42.673804259354839
10
112.88358928004898
20
39.673804259354839
10
132.88358928004899
20
39.673804259354839
10
132.88358928004899
20
42.673804259354839
42
-0.4142135623730977
10
133.88358928004897
20
43.673804259354831
10
151.88358928004899
20
43.673804259354839
42
-0.4142135623730977
10
152.88358928004899
20
42.673804259354839
10
152.88358928004897
20
40.673804259354831
42
-0.4142135623730977
10
151.88358928004899
20
39.673804259354839
10
148.88358928004897
20
39.673804259354846
10
148.88358928004897
20
25.673804259354821
10
151.88358928004899
20
25.673804259354831
42
-0.4142135623730977
10
152.88358928004899
20
24.673804259354828
10
152.88358928004899
20
12.673804259354831
42
-0.41421356237309637
10
151.88358928004899
20
11.673804259354824
10
148.88358928004897
20
11.673804259354821
10
148.88358928004897
20
-2.3261957406451743
10
151.88358928004899
20
-2.3261957406451685
42
-0.4142135623730967
10
152.88358928004899
20
-3.3261957406451703
10
152.88358928004899
20
-15.326195740645172
42
-0.41421356237309637
10
151.88358928004899
20
-16.326195740645176
10
148.88358928004897
20
-16.326195740645172
10
148.88358928004897
20
-30.326195740645186
10
151.88358928004899
20
-30.326195740645268
42
-0.4142135623730937
10
152.88358928004897
20
-31.326195740645243
10
152.88358928004899
20
-33.32619574064524
42
-0.41421356237308854
10
151.88358928004899
20
-34.326195740645254
10
129.88358928004902
20
-34.326195740645247
42
-0.41421356237309243
10
128.88358928004902
20
-33.326195740645261
10
128.88358928004902
20
-30.326195740645261
10
104.88358928004898
20
-30.326195740645261
10
104.88358928004899
20
-33.32619574064524
42
-0.41421356237308854
10
103.88358928004899
20
-34.326195740645254
10
81.883589280049009
20
-34.326195740645261
42
-0.41421356237309109
10
80.883589280048994
20
-33.326195740645261
10
80.883589280048966
20
-30.326195740645261
10
56.88358928004898
20
-30.326195740645257
10
56.883589280049009
20
-33.326195740645247
42
-0.41421356237310936
10
55.883589280048994
20
-34.326195740645254
10
33.883589280048994
20
-34.326195740645261
42
-0.41421356237309243
10
32.883589280048994
20
-33.326195740645247
10
32.883589280048987
20
-31.326195740645257
42
-0.41421356237309243
10
33.883589280048987
20
-30.326195740645257
10
36.88358928004898
20
-30.326195740645183
10
36.88358928004898
20
-16.326195740645169
10
33.883589280048987
20
-16.326195740645172
42
-0.41421356237309509
10
32.883589280048987
20
-15.326195740645172
10
32.883589280048994
20
-3.3261957406451623
42
-0.4142135623730962
10
33.883589280048987
20
-2.3261957406451712
10
36.88358928004898
20
-2.3261957406451694
10
36.88358928004898
20
11.673804259354824
10
33.883589280048987
20
11.673804259354824
42
-0.4142135623730957
10
32.883589280048987
20
12.673804259354819
10
32.883589280048994
20
24.673804259354824
42
-0.4142135623730977
10
33.883589280048987
20
25.673804259354821
10
36.88358928004898
20
25.673804259354817
10
36.88358928004898
20
38.673804259354839
42
-0.41421356237308982
10
37.88358928004898
20
39.673804259354839
10
52.883589280048938
20
39.673804259354839
0
CIRCLE
5
112
100
AcDbEntity
8
0
100
AcDbCircle
10
132.58492109249889
20
26.300282364747858
30
0
40
1.5000000000000038
0
CIRCLE
5
113
100
AcDbEntity
8
0
100
AcDbCircle
10
74.584921092498888
20
-22.699717635252163
30
5.5511151231257827e-16
40
1.5000000000000038
0
CIRCLE
5
114
100
AcDbEntity
8
0
100
AcDbCircle
10
74.584921092498888
20
26.300282364747858
30
3.8857805861880479e-15
40
1.5000000000000038
0
CIRCLE
5
115
100
AcDbEntity
8
0
100
AcDbCircle
10
132.58492109249889
20
-22.699717635252163
30
-1.1102230246251565e-15
40
1.5000000000000038
0
ENDSEC
0
SECTION
2
OBJECTS
0
DICTIONARY
5
C
100
AcDbDictionary
3
ACAD_GROUP
350
D
3
ACAD_MLINESTYLE
350
17
0
DICTIONARY
5
D
100
AcDbDictionary
0
DICTIONARY
5
1A
330
C
100
AcDbDictionary
0
DICTIONARY
5
17
100
AcDbDictionary
0
ENDSEC
0
EOF
