0
SECTION
2
HEADER
9
$INSUNITS
70
4
9
$ACADVER
1
AC1014
9
$HANDSEED
5
FFFF
0
ENDSEC
0
SECTION
2
TABLES
0
TABLE
2
VPORT
5
8
100
AcDbSymbolTable
0
ENDTAB
0
TABLE
2
LTYPE
5
5
100
AcDbSymbolTable
0
LTYPE
5
14
100
AcDbSymbolTableRecord
100
AcDbLinetypeTableRecord
2
BYBLOCK
70
0
0
LTYPE
5
15
100
AcDbSymbolTableRecord
100
AcDbLinetypeTableRecord
2
BYLAYER
70
0
0
ENDTAB
0
TABLE
2
LAYER
5
2
100
AcDbSymbolTable
70
2
0
LAYER
5
50
100
AcDbSymbolTableRecord
100
AcDbLayerTableRecord
2
0
70
0
6
CONTINUOUS
0
ENDTAB
0
TABLE
2
STYLE
5
3
100
AcDbSymbolTable
70
1
0
STYLE
5
11
100
AcDbSymbolTableRecord
100
AcDbTextStyleTableRecord
2
STANDARD
70
0
0
ENDTAB
0
TABLE
2
VIEW
5
6
100
AcDbSymbolTable
70
0
0
ENDTAB
0
TABLE
2
UCS
5
7
100
AcDbSymbolTable
70
0
0
ENDTAB
0
TABLE
2
APPID
5
9
100
AcDbSymbolTable
70
2
0
APPID
5
12
100
AcDbSymbolTableRecord
100
AcDbRegAppTableRecord
2
ACAD
70
0
0
ENDTAB
0
TABLE
2
DIMSTYLE
5
A
100
AcDbSymbolTable
70
1
0
ENDTAB
0
TABLE
2
BLOCK_RECORD
5
1
100
AcDbSymbolTable
70
1
0
BLOCK_RECORD
5
1F
100
AcDbSymbolTableRecord
100
AcDbBlockTableRecord
2
*MODEL_SPACE
0
BLOCK_RECORD
5
1B
100
AcDbSymbolTableRecord
100
AcDbBlockTableRecord
2
*PAPER_SPACE
0
ENDTAB
0
ENDSEC
0
SECTION
2
BLOCKS
0
BLOCK
5
20
100
AcDbEntity
100
AcDbBlockBegin
2
*MODEL_SPACE
0
ENDBLK
5
21
100
AcDbEntity
100
AcDbBlockEnd
0
BLOCK
5
1C
100
AcDbEntity
100
AcDbBlockBegin
2
*PAPER_SPACE
0
ENDBLK
5
1D
100
AcDbEntity
100
AcDbBlockEnd
0
ENDSEC
0
SECTION
2
ENTITIES
0
LWPOLYLINE
5
100
100
AcDbEntity
8
0
100
AcDbPolyline
90
56
70
1
43
0.0
10
-73.268887824995673
20
15.116410719950792
42
-0.41421356237309892
10
-72.268887824995687
20
16.116410719950803
10
-51.018887824996064
20
16.1164107199508
10
-51.018887824996064
20
19.11641071995102
42
-0.41421356237309825
10
-50.018887824996085
20
20.116410719951006
10
-7.5188878249961348
20
20.116410719951432
42
-0.41421356237309598
10
-6.5188878249961268
20
19.116410719951425
10
-6.5188878249961224
20
16.116410719950803
10
14.731112175004251
20
16.1164107199508
42
-0.41421356237309309
10
15.731112175004238
20
15.116410719950814
10
15.731112175004196
20
-31.883589280048415
42
-0.41421356237309243
10
14.731112175004208
20
-32.883589280048412
10
11.381462719577453
20
-32.883589280048902
10
11.381462719577469
20
-56.883589280048909
10
18.381462719577467
20
-56.883589280048966
42
-0.4142135623730977
10
19.38146271957746
20
-57.883589280048973
10
19.381462719577431
20
-79.88358928004898
42
-0.4142135623730937
10
18.381462719577438
20
-80.883589280048952
10
11.381462719577485
20
-80.883589280048881
10
11.381462719577495
20
-104.88358928004887
10
18.381462719577456
20
-104.88358928004899
42
-0.41421356237309509
10
19.381462719577442
20
-105.88358928004897
10
19.381462719577446
20
-127.88358928004897
42
-0.41421356237309825
10
18.381462719577421
20
-128.88358928004897
10
11.381462719577506
20
-128.88358928004885
10
11.38146271957708
20
-151.88358928004899
42
-0.4142135623730957
10
10.381462719577064
20
-152.88358928004899
10
-3.6786774982517567
20
-152.88358928004899
42
-0.4142135623730967
10
-4.6786774982517541
20
-151.88358928004899
10
-4.6786774982517487
20
-148.88358928004902
10
-20.738817716081034
20
-148.88358928004902
10
-20.738817716081019
20
-151.88358928004899
42
-0.41421356237309509
10
-21.738817716081034
20
-152.88358928004899
10
-35.798957933910309
20
-152.88358928004899
42
-0.41421356237309109
10
-36.798957933910302
20
-151.88358928004899
10
-36.798957933910302
20
-148.88358928004905
10
-52.859098151739573
20
-148.88358928004902
10
-52.859098151739545
20
-151.88358928004899
42
-0.4142135623730977
10
-53.859098151739566
20
-152.88358928004899
10
-67.919238369569157
20
-152.88358928004899
42
-0.4142135623730977
10
-68.919238369569157
20
-151.88358928004902
10
-68.919238369569129
20
-128.88358928004874
10
-75.919238369568916
20
-128.8835892800488
42
-0.4142135623730977
10
-76.91923836956893
20
-127.8835892800488
10
-76.919238369568916
20
-105.8835892800488
42
-0.41421356237309243
10
-75.91923836956893
20
-104.8835892800488
10
-68.919238369569385
20
-104.88358928004872
10
-68.919238369569044
20
-80.883589280048739
10
-75.919238369568916
20
-80.883589280048824
42
-0.41421356237310542
10
-76.919238369568916
20
-79.883589280048824
10
-76.919238369568902
20
-57.883589280048781
42
-0.41421356237309243
10
-75.919238369568916
20
-56.883589280048795
10
-68.91923836956903
20
-56.883589280048753
10
-68.919238369568973
20
-32.883589280048739
10
-72.268887824995716
20
-32.883589280049208
42
-0.4142135623731002
10
-73.268887824995701
20
-31.883589280049218
0
CIRCLE
5
101
100
AcDbEntity
8
0
100
AcDbCircle
10
-18.268887824995787
20
-3.8835892800490734
30
0
40
2.5
0
CIRCLE
5
102
100
AcDbEntity
8
0
100
AcDbCircle
10
-39.268887824995687
20
-3.8835892800490779
30
0
40
2.5
0
CIRCLE
5
103
100
AcDbEntity
8
0
100
AcDbCircle
10
-18.268887824995787
20
-24.883589280048998
30
0
40
2.5
0
CIRCLE
5
104
100
AcDbEntity
8
0
100
AcDbCircle
10
-39.268887824995701
20
-24.883589280049009
30
0
40
2.5
0
CIRCLE
5
105
100
AcDbEntity
8
0
100
AcDbCircle
10
-28.768887824995733
20
-3.8835892800490779
30
0
40
5
0
LWPOLYLINE
5
106
100
AcDbEntity
8
0
100
AcDbPolyline
90
4
70
1
43
0.0
10
-4.6786774982518597
20
-36.883589280048994
10
-4.6786774982518597
20
-32.883589280048994
10
-20.73881771608114
20
-32.883589280048994
10
-20.738817716081144
20
-36.883589280048994
0
LWPOLYLINE
5
107
100
AcDbEntity
8
0
100
AcDbPolyline
90
4
70
1
43
0.0
10
-36.798957933910408
20
-36.883589280048994
10
-36.798957933910408
20
-32.883589280048994
10
-52.859098151739673
20
-32.883589280048994
10
-52.859098151739673
20
-36.883589280048994
0
LWPOLYLINE
5
108
100
AcDbEntity
8
0
100
AcDbPolyline
90
8
70
1
43
0.0
10
-16.768887824995865
20
-93.982074599845902
10
-16.768887824995865
20
-76.482074599845916
42
0.99999999999999989
10
-16.768887824995861
20
-61.482074599845902
10
-16.768887824995858
20
-43.982074599845902
10
-40.768887824995844
20
-43.982074599845902
10
-40.768887824995865
20
-61.482074599845902
42
0.99999999999999989
10
-40.768887824995836
20
-76.482074599845902
10
-40.768887824995836
20
-93.982074599845902
0
CIRCLE
5
109
100
AcDbEntity
8
0
100
AcDbCircle
10
-11.268887824995748
20
-6.8835892800490317
30
0
40
1.5000000000000004
0
CIRCLE
5
110
100
AcDbEntity
8
0
100
AcDbCircle
10
-46.268887824995716
20
-6.8835892800490317
30
4.4408920985006262e-15
40
1.5000000000000038
0
CIRCLE
5
111
100
AcDbEntity
8
0
100
AcDbCircle
10
-11.268887824995755
20
-21.88358928004903
30
0
40
1.4999999999999993
0
CIRCLE
5
112
100
AcDbEntity
8
0
100
AcDbCircle
10
-46.268887824995737
20
-21.88358928004903
30
0
40
1.5000000000000038
0
CIRCLE
5
113
100
AcDbEntity
8
0
100
AcDbCircle
10
-0.46969132210270548
20
2.5653380715194318
30
0
40
6.4999999999999947
0
CIRCLE
5
114
100
AcDbEntity
8
0
100
AcDbCircle
10
-0.46969132210273323
20
-90.767995261813894
30
0
40
6.4999999999999947
0
CIRCLE
5
115
100
AcDbEntity
8
0
100
AcDbCircle
10
-57.469691322102676
20
-20.767995261813915
30
0
40
6.4999999999999947
0
CIRCLE
5
116
100
AcDbEntity
8
0
100
AcDbCircle
10
-57.469691322102676
20
-44.101328595147251
30
4.4408920985006262e-15
40
6.4999999999999947
0
CIRCLE
5
117
100
AcDbEntity
8
0
100
AcDbCircle
10
-57.469691322102712
20
-137.43466192848061
30
4.4408920985006262e-15
40
6.4999999999999947
0
CIRCLE
5
118
100
AcDbEntity
8
0
100
AcDbCircle
10
-0.46969132210272657
20
-67.434661928480566
30
0
40
6.4999999999999947
0
CIRCLE
5
119
100
AcDbEntity
8
0
100
AcDbCircle
10
-0.46969132210271325
20
-20.767995261813901
30
0
40
6.4999999999999947
0
CIRCLE
5
120
100
AcDbEntity
8
0
100
AcDbCircle
10
-57.46969132210269
20
-90.767995261813908
30
0
40
6.4999999999999947
0
CIRCLE
5
121
100
AcDbEntity
8
0
100
AcDbCircle
10
-57.469691322102669
20
2.5653380715194185
30
0
40
6.4999999999999947
0
CIRCLE
5
122
100
AcDbEntity
8
0
100
AcDbCircle
10
-57.469691322102683
20
-67.43466192848058
30
0
40
6.4999999999999947
0
CIRCLE
5
123
100
AcDbEntity
8
0
100
AcDbCircle
10
-0.46969132210274767
20
-137.43466192848058
30
0
40
6.4999999999999947
0
CIRCLE
5
124
100
AcDbEntity
8
0
100
AcDbCircle
10
-0.46969132210271991
20
-44.101328595147244
30
0
40
6.4999999999999947
0
LWPOLYLINE
5
125
100
AcDbEntity
8
0
100
AcDbPolyline
90
4
70
1
43
0.0
10
-6.4650642808575922
20
-111.59025251397588
42
-2.749965494262895
10
-3.9900627584193877
20
-119.56548314552059
42
-1.1501830841854244
10
-53.503577594660392
20
-119.2510802300316
42
-3.134893710139008
10
-51.300943888899432
20
-112.05277908260244
42
-0.62167159427407459
0
ENDSEC
0
SECTION
2
OBJECTS
0
DICTIONARY
5
C
100
AcDbDictionary
3
ACAD_GROUP
350
D
3
ACAD_MLINESTYLE
350
17
0
DICTIONARY
5
D
100
AcDbDictionary
0
DICTIONARY
5
1A
330
C
100
AcDbDictionary
0
DICTIONARY
5
17
100
AcDbDictionary
0
ENDSEC
0
EOF
