0
SECTION
2
HEADER
9
$INSUNITS
70
4
9
$ACADVER
1
AC1014
9
$HANDSEED
5
FFFF
0
ENDSEC
0
SECTION
2
TABLES
0
TABLE
2
VPORT
5
8
100
AcDbSymbolTable
0
ENDTAB
0
TABLE
2
LTYPE
5
5
100
AcDbSymbolTable
0
LTYPE
5
14
100
AcDbSymbolTableRecord
100
AcDbLinetypeTableRecord
2
BYBLOCK
70
0
0
LTYPE
5
15
100
AcDbSymbolTableRecord
100
AcDbLinetypeTableRecord
2
BYLAYER
70
0
0
ENDTAB
0
TABLE
2
LAYER
5
2
100
AcDbSymbolTable
70
2
0
LAYER
5
50
100
AcDbSymbolTableRecord
100
AcDbLayerTableRecord
2
0
70
0
6
CONTINUOUS
0
ENDTAB
0
TABLE
2
STYLE
5
3
100
AcDbSymbolTable
70
1
0
STYLE
5
11
100
AcDbSymbolTableRecord
100
AcDbTextStyleTableRecord
2
STANDARD
70
0
0
ENDTAB
0
TABLE
2
VIEW
5
6
100
AcDbSymbolTable
70
0
0
ENDTAB
0
TABLE
2
UCS
5
7
100
AcDbSymbolTable
70
0
0
ENDTAB
0
TABLE
2
APPID
5
9
100
AcDbSymbolTable
70
2
0
APPID
5
12
100
AcDbSymbolTableRecord
100
AcDbRegAppTableRecord
2
ACAD
70
0
0
ENDTAB
0
TABLE
2
DIMSTYLE
5
A
100
AcDbSymbolTable
70
1
0
ENDTAB
0
TABLE
2
BLOCK_RECORD
5
1
100
AcDbSymbolTable
70
1
0
BLOCK_RECORD
5
1F
100
AcDbSymbolTableRecord
100
AcDbBlockTableRecord
2
*MODEL_SPACE
0
BLOCK_RECORD
5
1B
100
AcDbSymbolTableRecord
100
AcDbBlockTableRecord
2
*PAPER_SPACE
0
ENDTAB
0
ENDSEC
0
SECTION
2
BLOCKS
0
BLOCK
5
20
100
AcDbEntity
100
AcDbBlockBegin
2
*MODEL_SPACE
0
ENDBLK
5
21
100
AcDbEntity
100
AcDbBlockEnd
0
BLOCK
5
1C
100
AcDbEntity
100
AcDbBlockBegin
2
*PAPER_SPACE
0
ENDBLK
5
1D
100
AcDbEntity
100
AcDbBlockEnd
0
ENDSEC
0
SECTION
2
ENTITIES
0
CIRCLE
5
100
100
AcDbEntity
8
0
100
AcDbCircle
10
-6.6151942221894799
20
-13.661708195413137
30
0
40
4.5000000000000018
0
CIRCLE
5
101
100
AcDbEntity
8
0
100
AcDbCircle
10
-38.615194222189544
20
-13.661708195413183
30
0
40
4.5000000000000018
0
CIRCLE
5
102
100
AcDbEntity
8
0
100
AcDbCircle
10
-62.615194222189608
20
-21.661708195413212
30
0
40
4.5000000000000107
0
CIRCLE
5
103
100
AcDbEntity
8
0
100
AcDbCircle
10
-54.615194222189558
20
-13.661708195413205
30
0
40
4.5000000000000107
0
CIRCLE
5
104
100
AcDbEntity
8
0
100
AcDbCircle
10
-22.615194222189494
20
-13.66170819541316
30
0
40
4.5000000000000018
0
CIRCLE
5
105
100
AcDbEntity
8
0
100
AcDbCircle
10
1.3848057778105982
20
-5.661708195413131
30
0
40
4.5000000000000018
0
CIRCLE
5
106
100
AcDbEntity
8
0
100
AcDbCircle
10
-14.615194222189523
20
-21.661708195413144
30
0
40
4.5000000000000018
0
CIRCLE
5
107
100
AcDbEntity
8
0
100
AcDbCircle
10
-46.615194222189587
20
-21.661708195413183
30
0
40
4.5000000000000018
0
CIRCLE
5
108
100
AcDbEntity
8
0
100
AcDbCircle
10
-62.615194222189537
20
-5.6617081954132198
30
0
40
4.5000000000000107
0
CIRCLE
5
109
100
AcDbEntity
8
0
100
AcDbCircle
10
-46.615194222189501
20
-5.6617081954131976
30
0
40
4.5000000000000018
0
CIRCLE
5
110
100
AcDbEntity
8
0
100
AcDbCircle
10
-14.615194222189434
20
-5.6617081954131487
30
0
40
4.5000000000000018
0
CIRCLE
5
111
100
AcDbEntity
8
0
100
AcDbCircle
10
1.3848057778105094
20
-21.661708195413123
30
0
40
4.5000000000000018
0
CIRCLE
5
112
100
AcDbEntity
8
0
100
AcDbCircle
10
-28.268887824995836
20
-20.052063141884542
30
0
40
1.5000000000000067
0
CIRCLE
5
113
100
AcDbEntity
8
0
100
AcDbCircle
10
11.731112175004252
20
-12.552063141884521
30
0
40
1.5000000000000067
0
CIRCLE
5
114
100
AcDbEntity
8
0
100
AcDbCircle
10
-29.26888782499578
20
-12.552063141884538
30
0
40
1.5000000000000067
0
CIRCLE
5
115
100
AcDbEntity
8
0
100
AcDbCircle
10
-69.268887824995858
20
-20.052063141884638
30
0
40
1.4999999999999978
0
LWPOLYLINE
5
116
100
AcDbEntity
8
0
100
AcDbPolyline
90
20
70
1
43
0.0
10
-52.018887824995801
20
3.9479368581153285
42
-0.41421356237309259
10
-51.018887824995794
20
2.9479368581153316
10
-51.018887824995794
20
-0.052063141884662642
10
-6.5188878249957085
20
-0.052063141884552966
10
-6.5188878249957147
20
2.9479368581154288
42
-0.41421356237309698
10
-5.5188878249957156
20
3.9479368581154395
10
14.731112175004297
20
3.947936858115499
42
-0.41421356237309809
10
15.731112175004311
20
2.9479368581154786
10
15.731112175004281
20
-32.052063141884524
42
-0.41421356237309437
10
14.731112175004281
20
-33.052063141884524
10
-5.5188878249957662
20
-33.052063141884595
42
-0.41421356237309209
10
-6.5188878249957796
20
-32.052063141884581
10
-6.518887824995776
20
-29.052063141884577
10
-51.018887824995858
20
-29.052063141884684
10
-51.018887824995851
20
-32.052063141884688
42
-0.4142135623730937
10
-52.018887824995858
20
-33.052063141884688
10
-72.268887824995872
20
-33.052063141884737
42
-0.4142135623730937
10
-73.268887824995886
20
-32.052063141884737
10
-73.268887824995858
20
2.9479368581152778
42
-0.41421356237309426
10
-72.268887824995844
20
3.9479368581152885
0
ENDSEC
0
SECTION
2
OBJECTS
0
DICTIONARY
5
C
100
AcDbDictionary
3
ACAD_GROUP
350
D
3
ACAD_MLINESTYLE
350
17
0
DICTIONARY
5
D
100
AcDbDictionary
0
DICTIONARY
5
1A
330
C
100
AcDbDictionary
0
DICTIONARY
5
17
100
AcDbDictionary
0
ENDSEC
0
EOF
