0
SECTION
2
HEADER
9
$INSUNITS
70
4
9
$ACADVER
1
AC1014
9
$HANDSEED
5
FFFF
0
ENDSEC
0
SECTION
2
TABLES
0
TABLE
2
VPORT
5
8
100
AcDbSymbolTable
0
ENDTAB
0
TABLE
2
LTYPE
5
5
100
AcDbSymbolTable
0
LTYPE
5
14
100
AcDbSymbolTableRecord
100
AcDbLinetypeTableRecord
2
BYBLOCK
70
0
0
LTYPE
5
15
100
AcDbSymbolTableRecord
100
AcDbLinetypeTableRecord
2
BYLAYER
70
0
0
ENDTAB
0
TABLE
2
LAYER
5
2
100
AcDbSymbolTable
70
2
0
LAYER
5
50
100
AcDbSymbolTableRecord
100
AcDbLayerTableRecord
2
0
70
0
6
CONTINUOUS
0
ENDTAB
0
TABLE
2
STYLE
5
3
100
AcDbSymbolTable
70
1
0
STYLE
5
11
100
AcDbSymbolTableRecord
100
AcDbTextStyleTableRecord
2
STANDARD
70
0
0
ENDTAB
0
TABLE
2
VIEW
5
6
100
AcDbSymbolTable
70
0
0
ENDTAB
0
TABLE
2
UCS
5
7
100
AcDbSymbolTable
70
0
0
ENDTAB
0
TABLE
2
APPID
5
9
100
AcDbSymbolTable
70
2
0
APPID
5
12
100
AcDbSymbolTableRecord
100
AcDbRegAppTableRecord
2
ACAD
70
0
0
ENDTAB
0
TABLE
2
DIMSTYLE
5
A
100
AcDbSymbolTable
70
1
0
ENDTAB
0
TABLE
2
BLOCK_RECORD
5
1
100
AcDbSymbolTable
70
1
0
BLOCK_RECORD
5
1F
100
AcDbSymbolTableRecord
100
AcDbBlockTableRecord
2
*MODEL_SPACE
0
BLOCK_RECORD
5
1B
100
AcDbSymbolTableRecord
100
AcDbBlockTableRecord
2
*PAPER_SPACE
0
ENDTAB
0
ENDSEC
0
SECTION
2
BLOCKS
0
BLOCK
5
20
100
AcDbEntity
100
AcDbBlockBegin
2
*MODEL_SPACE
0
ENDBLK
5
21
100
AcDbEntity
100
AcDbBlockEnd
0
BLOCK
5
1C
100
AcDbEntity
100
AcDbBlockBegin
2
*PAPER_SPACE
0
ENDBLK
5
1D
100
AcDbEntity
100
AcDbBlockEnd
0
ENDSEC
0
SECTION
2
ENTITIES
0
CIRCLE
5
100
100
AcDbEntity
8
0
100
AcDbCircle
10
-28.768887824995861
20
-122.88358928004894
30
0
40
11.66190378969052
0
CIRCLE
5
101
100
AcDbEntity
8
0
100
AcDbCircle
10
-40.268887824995886
20
-108.88358928004868
30
0
40
2.0000000000000107
0
CIRCLE
5
102
100
AcDbEntity
8
0
100
AcDbCircle
10
-40.268887824995886
20
-136.88358928004868
30
0
40
2.0000000000000107
0
CIRCLE
5
103
100
AcDbEntity
8
0
100
AcDbCircle
10
-17.268887824995875
20
-108.88358928004868
30
0
40
2.0000000000000107
0
CIRCLE
5
104
100
AcDbEntity
8
0
100
AcDbCircle
10
-17.268887824995875
20
-136.88358928004868
30
0
40
2.0000000000000107
0
LWPOLYLINE
5
105
100
AcDbEntity
8
0
100
AcDbPolyline
90
32
70
1
43
0.0
10
-3.5972507394847977
20
-141.1665667906405
42
-0.4142135623730967
10
-4.5972507394847995
20
-142.1665667906405
10
-52.94052491050698
20
-142.16656679064047
42
-0.4142135623730977
10
-53.940524910506973
20
-141.1665667906405
10
-53.94052491050698
20
-133.88358928004868
42
-0.4142135623730977
10
-52.940524910506959
20
-132.88358928004868
10
-50.768887824995872
20
-132.88358928004868
10
-50.768887824995886
20
-128.88358928004868
10
-52.94052491050698
20
-128.88358928004865
42
-0.4142135623730977
10
-53.940524910506973
20
-127.88358928004868
10
-53.940524910506952
20
-117.88358928004867
42
-0.41421356237309509
10
-52.940524910506959
20
-116.88358928004867
10
-50.768887824995886
20
-116.88358928004868
10
-50.768887824995872
20
-112.88358928004865
10
-52.940524910506959
20
-112.88358928004868
42
-0.41421356237308982
10
-53.940524910506973
20
-111.88358928004868
10
-53.940524910506952
20
-104.60061176945688
42
-0.41421356237309509
10
-52.940524910506959
20
-103.60061176945689
10
-4.5972507394847817
20
-103.6006117694569
42
-0.41421356237309681
10
-3.5972507394847852
20
-104.60061176945689
10
-3.5972507394847724
20
-111.88358928004867
42
-0.41421356237309359
10
-4.5972507394847995
20
-112.88358928004867
10
-6.7688878249958684
20
-112.88358928004865
10
-6.7688878249958684
20
-116.88358928004868
10
-4.5972507394847817
20
-116.88358928004868
42
-0.41421356237309681
10
-3.5972507394847852
20
-117.88358928004868
10
-3.5972507394848066
20
-127.8835892800487
42
-0.41421356237309409
10
-4.5972507394847995
20
-128.88358928004868
10
-6.7688878249958861
20
-128.88358928004865
10
-6.7688878249958861
20
-132.88358928004868
10
-4.5972507394847817
20
-132.88358928004871
42
-0.41421356237309681
10
-3.5972507394847852
20
-133.88358928004868
0
ENDSEC
0
SECTION
2
OBJECTS
0
DICTIONARY
5
C
100
AcDbDictionary
3
ACAD_GROUP
350
D
3
ACAD_MLINESTYLE
350
17
0
DICTIONARY
5
D
100
AcDbDictionary
0
DICTIONARY
5
1A
330
C
100
AcDbDictionary
0
DICTIONARY
5
17
100
AcDbDictionary
0
ENDSEC
0
EOF
