0
SECTION
2
HEADER
9
$INSUNITS
70
4
9
$ACADVER
1
AC1014
9
$HANDSEED
5
FFFF
0
ENDSEC
0
SECTION
2
TABLES
0
TABLE
2
VPORT
5
8
100
AcDbSymbolTable
0
ENDTAB
0
TABLE
2
LTYPE
5
5
100
AcDbSymbolTable
0
LTYPE
5
14
100
AcDbSymbolTableRecord
100
AcDbLinetypeTableRecord
2
BYBLOCK
70
0
0
LTYPE
5
15
100
AcDbSymbolTableRecord
100
AcDbLinetypeTableRecord
2
BYLAYER
70
0
0
ENDTAB
0
TABLE
2
LAYER
5
2
100
AcDbSymbolTable
70
2
0
LAYER
5
50
100
AcDbSymbolTableRecord
100
AcDbLayerTableRecord
2
0
70
0
6
CONTINUOUS
0
ENDTAB
0
TABLE
2
STYLE
5
3
100
AcDbSymbolTable
70
1
0
STYLE
5
11
100
AcDbSymbolTableRecord
100
AcDbTextStyleTableRecord
2
STANDARD
70
0
0
ENDTAB
0
TABLE
2
VIEW
5
6
100
AcDbSymbolTable
70
0
0
ENDTAB
0
TABLE
2
UCS
5
7
100
AcDbSymbolTable
70
0
0
ENDTAB
0
TABLE
2
APPID
5
9
100
AcDbSymbolTable
70
2
0
APPID
5
12
100
AcDbSymbolTableRecord
100
AcDbRegAppTableRecord
2
ACAD
70
0
0
ENDTAB
0
TABLE
2
DIMSTYLE
5
A
100
AcDbSymbolTable
70
1
0
ENDTAB
0
TABLE
2
BLOCK_RECORD
5
1
100
AcDbSymbolTable
70
1
0
BLOCK_RECORD
5
1F
100
AcDbSymbolTableRecord
100
AcDbBlockTableRecord
2
*MODEL_SPACE
0
BLOCK_RECORD
5
1B
100
AcDbSymbolTableRecord
100
AcDbBlockTableRecord
2
*PAPER_SPACE
0
ENDTAB
0
ENDSEC
0
SECTION
2
BLOCKS
0
BLOCK
5
20
100
AcDbEntity
100
AcDbBlockBegin
2
*MODEL_SPACE
0
ENDBLK
5
21
100
AcDbEntity
100
AcDbBlockEnd
0
BLOCK
5
1C
100
AcDbEntity
100
AcDbBlockBegin
2
*PAPER_SPACE
0
ENDBLK
5
1D
100
AcDbEntity
100
AcDbBlockEnd
0
ENDSEC
0
SECTION
2
ENTITIES
0
CIRCLE
5
100
100
AcDbEntity
8
0
100
AcDbCircle
10
-28.768887824995968
20
12.377700436705384
30
0
40
4.6178845496626018
0
CIRCLE
5
101
100
AcDbEntity
8
0
100
AcDbCircle
10
-15.402077627417466
20
32.864436217152161
30
0
40
3.4773274614553271
0
CIRCLE
5
102
100
AcDbEntity
8
0
100
AcDbCircle
10
-75.020217161730173
20
-11.37543859749443
30
0
40
7.833599564476442
0
CIRCLE
5
103
100
AcDbEntity
8
0
100
AcDbCircle
10
-42.13569802257431
20
32.864436217152083
30
0
40
3.4773274614553271
0
CIRCLE
5
104
100
AcDbEntity
8
0
100
AcDbCircle
10
17.482441511738664
20
-11.375438597494147
30
0
40
7.8335995644764465
0
CIRCLE
5
105
100
AcDbEntity
8
0
100
AcDbCircle
10
-15.268887824995605
20
-14.052063141884538
30
0
40
9.9523408929945312
0
CIRCLE
5
106
100
AcDbEntity
8
0
100
AcDbCircle
10
-5.402077627417432
20
22.864436217152232
30
0
40
6.9593918998953601
0
CIRCLE
5
107
100
AcDbEntity
8
0
100
AcDbCircle
10
-65.065911372631092
20
7.5851438579324242
30
0
40
9.6499451376280341
0
CIRCLE
5
108
100
AcDbEntity
8
0
100
AcDbCircle
10
-52.135698022574289
20
22.864436217152093
30
0
40
6.9593918998953601
0
CIRCLE
5
109
100
AcDbEntity
8
0
100
AcDbCircle
10
7.5281357226394618
20
7.5851438579326462
30
0
40
9.6499451376280341
0
CIRCLE
5
110
100
AcDbEntity
8
0
100
AcDbCircle
10
-42.268887824995886
20
-14.052063141884624
30
0
40
9.9523408929945312
0
LWPOLYLINE
5
111
100
AcDbEntity
8
0
100
AcDbPolyline
90
10
70
1
43
0.0
10
-25.492279647839933
20
30.582885703748879
10
-21.305567402595788
20
24.603640955900644
10
-18.293677228070756
20
26.712589160362992
10
-25.421030431974437
20
36.891504431864448
10
-28.768887824996121
20
34.547309448419412
10
-32.116745218017861
20
36.891504431864341
10
-39.244098421921265
20
26.712589160362654
10
-36.23220824739613
20
24.603640955900417
10
-32.04549600215185
20
30.582885703748886
10
-28.768887824995872
20
28.288579958344737
0
LWPOLYLINE
5
112
100
AcDbEntity
8
0
100
AcDbPolyline
90
4
70
1
43
0.0
10
-9.4321394300106594
20
7.6466284636571302
10
-17.46220953892529
20
19.114757083702994
10
-20.738817716081257
20
16.82045133829881
10
-12.708747607166641
20
5.3523227182529309
0
LWPOLYLINE
5
113
100
AcDbEntity
8
0
100
AcDbPolyline
90
4
70
1
43
0.0
10
6.6280007878185998
20
-15.289628776434608
10
-1.4020693210960289
20
-3.8215001563887352
10
-4.6786774982520232
20
-6.1158059017929371
10
3.3513926106625984
20
-17.58393452183882
0
LWPOLYLINE
5
114
100
AcDbEntity
8
0
100
AcDbPolyline
90
4
70
1
43
0.0
10
-52.859098151739722
20
-6.1158059017929407
10
-56.135706328895687
20
-3.8215001563887463
10
-64.165776437810308
20
-15.289628776434622
10
-60.889168260654351
20
-17.583934521838827
0
LWPOLYLINE
5
115
100
AcDbEntity
8
0
100
AcDbPolyline
90
4
70
1
43
0.0
10
-40.075566111066465
20
19.114757083703005
10
-48.105636219981072
20
7.6466284636571196
10
-44.829028042825108
20
5.3523227182529309
10
-36.798957933910501
20
16.82045133829881
0
LWPOLYLINE
5
116
100
AcDbEntity
8
0
100
AcDbPolyline
90
4
70
1
43
0.0
10
-39.768887824995886
20
3.9479368581153933
10
-39.768887824995673
20
-0.052063141884606257
10
-17.768887824996153
20
-0.052063141884604591
10
-17.768887824995936
20
3.9479368581153929
0
LWPOLYLINE
5
117
100
AcDbEntity
8
0
100
AcDbPolyline
90
20
70
1
43
0.0
10
29.406442797776272
20
-15.891568607691775
42
-0.24962741232935995
10
28.98019185144474
20
-16.729300340840211
10
11.639740367049367
20
-28.871215186173632
42
-0.15391472105982912
10
11.06616393069832
20
-29.052063141884645
10
-4.6786774982519175
20
-29.052063141884624
10
-4.6786774982519095
20
-32.052063141884624
42
-0.4142135623730947
10
-5.6786774982519095
20
-33.052063141884624
10
-19.738817716081179
20
-33.052063141884624
42
-0.4142135623730937
10
-20.738817716081176
20
-32.052063141884624
10
-20.738817716081176
20
-29.052063141884631
10
-36.798957933910422
20
-29.052063141884624
10
-36.798957933910415
20
-32.052063141884624
42
-0.41421356237310153
10
-37.798957933910422
20
-33.052063141884624
10
-51.85909815173968
20
-33.052063141884631
42
-0.41421356237309509
10
-52.859098151739687
20
-32.052063141884624
10
-52.859098151739673
20
-29.052063141884631
10
-68.603939580690081
20
-29.052063141884638
42
-0.15391472105983103
10
-69.177516017041128
20
-28.871215186173629
10
-86.51796750143518
20
-16.729300340841032
42
-0.24962741232932326
10
-86.944218447766701
20
-15.891568607692871
42
-0.98158975053011588
0
ENDSEC
0
SECTION
2
OBJECTS
0
DICTIONARY
5
C
100
AcDbDictionary
3
ACAD_GROUP
350
D
3
ACAD_MLINESTYLE
350
17
0
DICTIONARY
5
D
100
AcDbDictionary
0
DICTIONARY
5
1A
330
C
100
AcDbDictionary
0
DICTIONARY
5
17
100
AcDbDictionary
0
ENDSEC
0
EOF
